<svg width="61" height="61" viewBox="0 0 61 61" fill="none" xmlns="http://www.w3.org/2000/svg">
<path d="M28.6877 1.8833C29.4059 0.344398 31.5941 0.344397 32.3123 1.8833L40.5339 19.4996C40.7326 19.9253 41.0747 20.2674 41.5004 20.4661L59.1167 28.6877C60.6556 29.4059 60.6556 31.5941 59.1167 32.3123L41.5004 40.5339C41.0747 40.7326 40.7326 41.0747 40.5339 41.5004L32.3123 59.1167C31.5941 60.6556 29.4059 60.6556 28.6877 59.1167L20.4661 41.5004C20.2674 41.0747 19.9253 40.7326 19.4996 40.5339L1.8833 32.3123C0.344398 31.5941 0.344397 29.4059 1.8833 28.6877L19.4996 20.4661C19.9253 20.2674 20.2674 19.9253 20.4661 19.4996L28.6877 1.8833Z" fill="#FED700"/>
</svg>
